<svg width="202" height="66" viewBox="0 0 202 66" fill="none" xmlns="http://www.w3.org/2000/svg">
<path d="M8.712 11.088H15.408V24.336H23.616V29.592H15.408V54H8.712V29.592H3.24V24.336H8.712V11.088ZM29.115 38.808C29.115 35.832 29.811 33.144 31.203 30.744C32.643 28.344 34.611 26.448 37.107 25.056C39.603 23.664 42.435 22.968 45.603 22.968C48.867 22.968 51.723 23.664 54.171 25.056C56.619 26.448 58.515 28.344 59.859 30.744C61.203 33.144 61.875 35.832 61.875 38.808C61.875 41.784 61.203 44.496 59.859 46.944C58.515 49.344 56.595 51.24 54.099 52.632C51.651 54.024 48.795 54.72 45.531 54.72C42.363 54.72 39.531 54.072 37.035 52.776C34.587 51.432 32.643 49.584 31.203 47.232C29.811 44.832 29.115 42.024 29.115 38.808ZM35.811 38.88C35.811 40.8 36.243 42.552 37.107 44.136C37.971 45.672 39.123 46.896 40.563 47.808C42.051 48.72 43.683 49.176 45.459 49.176C47.331 49.176 48.987 48.72 50.427 47.808C51.915 46.896 53.067 45.672 53.883 44.136C54.699 42.552 55.107 40.8 55.107 38.88C55.107 36.96 54.699 35.232 53.883 33.696C53.067 32.112 51.915 30.864 50.427 29.952C48.987 28.992 47.331 28.512 45.459 28.512C43.635 28.512 41.979 28.992 40.491 29.952C39.051 30.912 37.899 32.184 37.035 33.768C36.219 35.304 35.811 37.008 35.811 38.88ZM73.8214 11.088H80.5174V24.336H88.7254V29.592H80.5174V54H73.8214V29.592H68.3494V24.336H73.8214V11.088ZM109.2 54.72C106.416 54.72 103.872 54.12 101.568 52.92C99.3124 51.72 97.5124 49.968 96.1684 47.664C94.8724 45.312 94.2244 42.456 94.2244 39.096C94.2244 35.784 94.9204 32.928 96.3124 30.528C97.7044 28.08 99.5524 26.208 101.856 24.912C104.208 23.616 106.776 22.968 109.56 22.968C112.344 22.968 114.696 23.616 116.616 24.912C118.536 26.16 120 27.648 121.008 29.376L120.576 30.528L121.224 24.192H127.416V54H120.72V46.224L121.44 47.952C121.248 48.432 120.816 49.056 120.144 49.824C119.52 50.544 118.656 51.288 117.552 52.056C116.496 52.824 115.272 53.472 113.88 54C112.488 54.48 110.928 54.72 109.2 54.72ZM111 49.176C112.68 49.176 114.192 48.864 115.536 48.24C116.88 47.616 117.984 46.752 118.848 45.648C119.76 44.496 120.384 43.128 120.72 41.544V35.712C120.336 34.272 119.664 33.024 118.704 31.968C117.744 30.864 116.592 30.024 115.248 29.448C113.904 28.824 112.416 28.512 110.784 28.512C109.008 28.512 107.376 28.944 105.888 29.808C104.4 30.672 103.2 31.872 102.288 33.408C101.424 34.944 100.992 36.744 100.992 38.808C100.992 40.728 101.448 42.48 102.36 44.064C103.272 45.648 104.496 46.896 106.032 47.808C107.568 48.72 109.224 49.176 111 49.176Z" fill="#4E4E4E"/>
<path d="M141.536 46.104C142.133 46.104 142.677 46.248 143.168 46.536C143.669 46.824 144.064 47.2293 144.352 47.752C144.64 48.2747 144.784 48.8827 144.784 49.576C144.784 50.3013 144.629 50.936 144.32 51.48C144.011 52.024 143.589 52.44 143.056 52.728C142.533 53.016 141.963 53.16 141.344 53.16C140.8 53.16 140.304 53.0533 139.856 52.84C139.419 52.6267 139.061 52.3387 138.784 51.976V53H137.296V40.6H138.784V47.256C139.061 46.904 139.44 46.6267 139.92 46.424C140.411 46.2107 140.949 46.104 141.536 46.104ZM141.024 51.88C141.675 51.88 142.208 51.6613 142.624 51.224C143.051 50.7867 143.264 50.2373 143.264 49.576C143.264 49.1493 143.163 48.7653 142.96 48.424C142.768 48.072 142.501 47.7947 142.16 47.592C141.819 47.3893 141.44 47.288 141.024 47.288C140.48 47.288 140 47.4373 139.584 47.736C139.179 48.024 138.912 48.408 138.784 48.888V50.232C138.912 50.712 139.179 51.1067 139.584 51.416C139.989 51.7253 140.469 51.88 141.024 51.88ZM153.084 46.376L148.812 56.184H147.34L148.86 52.776L145.788 46.376H147.468L149.612 51.096L151.708 46.376H153.084ZM162.101 49.816L161.237 50.52V53H159.749V40.6H161.237V48.968L164.661 46.216L165.573 47.016L163.125 48.984L165.893 53H164.149L162.101 49.816ZM166.982 52.152C166.982 51.9173 167.067 51.7147 167.238 51.544C167.408 51.3733 167.606 51.288 167.83 51.288C168.032 51.288 168.219 51.3733 168.39 51.544C168.571 51.7147 168.662 51.9173 168.662 52.152C168.662 52.3973 168.576 52.6 168.406 52.76C168.235 52.92 168.043 53 167.83 53C167.606 53 167.408 52.92 167.238 52.76C167.067 52.6 166.982 52.3973 166.982 52.152ZM172.789 49.816L171.925 50.52V53H170.437V40.6H171.925V48.968L175.349 46.216L176.261 47.016L173.813 48.984L176.581 53H174.837L172.789 49.816ZM177.669 52.152C177.669 51.9173 177.754 51.7147 177.925 51.544C178.096 51.3733 178.293 51.288 178.517 51.288C178.72 51.288 178.906 51.3733 179.077 51.544C179.258 51.7147 179.349 51.9173 179.349 52.152C179.349 52.3973 179.264 52.6 179.093 52.76C178.922 52.92 178.73 53 178.517 53C178.293 53 178.096 52.92 177.925 52.76C177.754 52.6 177.669 52.3973 177.669 52.152Z" fill="#F06449"/>
<path d="M46 20V14" stroke="#F06449" stroke-width="3"/>
<path d="M57.9996 23.2515L62.2334 19" stroke="#F06449" stroke-width="3"/>
<path d="M52.3539 20.4877L54.3955 14.8457" stroke="#F06449" stroke-width="3"/>
</svg>
